<svg width="220" height="100" viewBox="0 0 220 100" fill="none" xmlns="http://www.w3.org/2000/svg">
<path d="M70.192 7.336C70.6187 6.82399 71.1733 6.56799 71.856 6.56799C72.5387 6.56799 73.1787 6.90933 73.776 7.592L75.056 9C75.4827 9.34133 75.696 9.72533 75.696 10.152C75.696 10.4933 75.184 11.2187 74.16 12.328C73.2213 13.4373 69.7227 17.3627 63.664 24.104C50.2667 38.8667 42.5867 47.528 40.624 50.088C39.6 51.112 39.088 51.752 39.088 52.008C39.088 52.1787 39.1733 52.264 39.344 52.264C39.5147 52.264 39.9413 52.136 40.624 51.88C49.072 49.4907 60.336 44.2427 74.416 36.136C88.496 27.944 95.536 22.312 95.536 19.24C95.536 19.0693 95.3227 18.984 94.896 18.984C94.5547 18.984 93.9147 19.1973 92.976 19.624C92.0373 20.0507 91.1413 20.264 90.288 20.264C89.4347 20.264 89.008 19.7947 89.008 18.856C89.008 18.1733 89.6053 17.6187 90.8 17.192C94.0427 15.9973 101.125 11.6027 112.048 4.008C112.645 3.41066 113.328 3.112 114.096 3.112C114.864 3.112 115.973 3.92267 117.424 5.544C118.96 7.16533 119.728 8.744 119.728 10.28C119.728 20.0933 112.176 29.096 97.072 37.288C84.1013 44.456 67.12 51.3253 46.128 57.896C44.6773 58.3227 43.952 58.7493 43.952 59.176C43.952 60.6267 45.7867 63.6987 49.456 68.392C53.2107 73.0853 57.6053 77.8213 62.64 82.6C67.76 87.3787 71.7707 90.28 74.672 91.304C77.6587 92.4133 79.152 93.8213 79.152 95.528C79.152 95.8693 78.8107 96.2107 78.128 96.552C74.1173 98.5147 70.7893 99.496 68.144 99.496C65.4987 99.496 62.8533 98.6853 60.208 97.064C57.648 95.528 55.088 93.224 52.528 90.152C50.0533 87.1653 47.8347 84.3067 45.872 81.576C43.9947 78.8453 41.776 75.5173 39.216 71.592C36.656 67.5813 34.864 64.936 33.84 63.656C32.9013 62.2907 32.176 61.608 31.664 61.608C31.2373 61.608 30.896 61.7787 30.64 62.12C24.3253 69.6293 19.632 75.6027 16.56 80.04C13.488 84.392 10.928 89.0853 8.88 94.12C8.79467 94.888 8.45333 95.272 7.856 95.272C7.088 95.272 5.85067 94.3333 4.144 92.456C2.352 90.5787 1.28533 88.616 0.943999 86.568C0.943999 82.0453 6.23467 72.872 16.816 59.048C21.936 52.2213 29.1893 44.2 38.576 34.984C48.048 25.6827 58.5867 16.4667 70.192 7.336ZM75.58 43.304C75.324 44.072 74.94 44.456 74.428 44.456C73.916 44.456 73.66 43.816 73.66 42.536C73.66 41.256 74.7693 38.9947 76.988 35.752C79.2067 32.424 82.4067 28.8827 86.588 25.128C90.8547 21.288 95.5907 17.6613 100.796 14.248C106.001 10.8347 112.017 8.01866 118.844 5.8C125.756 3.49599 132.583 2.34399 139.324 2.34399C140.007 2.6 140.86 2.94133 141.884 3.368C142.993 3.70933 144.401 4.52 146.108 5.8C147.9 6.99466 148.796 8.104 148.796 9.128C148.796 10.152 148.583 10.92 148.156 11.432C141.585 17.4053 134.204 24.616 126.012 33.064C117.905 41.512 111.676 48.552 107.324 54.184L98.108 66.216C97.596 66.984 97.34 67.5813 97.34 68.008V68.136L99.388 67.112C99.5587 67.0267 99.6867 66.9413 99.772 66.856C130.919 44.9253 151.783 29.3947 162.364 20.264C162.62 19.9227 162.961 19.752 163.388 19.752C163.815 19.752 164.113 19.88 164.284 20.136C164.455 20.392 165.265 21.2027 166.716 22.568C168.167 23.848 168.892 24.8293 168.892 25.512C168.892 26.1093 168.636 26.6213 168.124 27.048C159.676 35.0693 151.057 45.1387 142.268 57.256C133.479 69.3733 129.084 78.7173 129.084 85.288C129.084 86.056 129.468 86.44 130.236 86.44C131.943 86.44 135.953 84.136 142.268 79.528C148.583 74.92 155.751 69.0747 163.772 61.992C171.879 54.9093 180.412 46.248 189.372 36.008C198.417 25.6827 205.799 15.656 211.516 5.92799C212.284 4.30666 212.881 2.984 213.308 1.96C213.735 0.850665 214.375 0.295998 215.228 0.295998C216.167 0.295998 217.105 1.576 218.044 4.13599C219.068 6.61066 219.58 8.78666 219.58 10.664C219.58 13.6507 216.167 19.624 209.34 28.584C202.513 37.544 194.535 46.8027 185.404 56.36C176.273 65.9173 166.588 74.4507 156.348 81.96C146.108 89.384 138.044 93.096 132.156 93.096C129.34 93.096 126.524 91.9867 123.708 89.768C120.977 87.5493 119.612 83.9653 119.612 79.016C119.612 72.872 121.447 66.5573 125.116 60.072C126.567 57.512 128.316 55.208 130.364 53.16L133.308 49.704L133.82 48.68V48.552C133.82 48.3813 133.777 48.296 133.692 48.296C133.436 48.296 133.052 48.552 132.54 49.064C113.511 65.7893 100.625 76.9253 93.884 82.472C87.1427 87.9333 83.1747 90.664 81.98 90.664C80.7853 90.664 79.804 90.0667 79.036 88.872C78.6947 88.4453 78.3107 88.0187 77.884 87.592C77.5427 87.08 77.2867 86.7387 77.116 86.568C76.9453 86.312 76.7747 86.0987 76.604 85.928C76.4333 85.672 76.3053 85.5013 76.22 85.416C76.1347 84.9893 76.092 84.3493 76.092 83.496C76.092 82.6427 76.3907 81.4053 76.988 79.784C77.5853 78.1627 78.14 76.6267 78.652 75.176C79.2493 73.64 80.8707 70.4827 83.516 65.704C86.1613 60.84 89.3187 55.976 92.988 51.112C96.6573 46.1627 102.033 40.1467 109.116 33.064C116.199 25.9813 124.135 19.1547 132.924 12.584C134.545 11.304 135.356 10.4933 135.356 10.152C135.356 9.81066 135.185 9.64 134.844 9.64C128.444 9.64 117.777 13.9067 102.844 22.44C87.996 30.9733 78.908 37.928 75.58 43.304Z" fill="#30D92C"/>
</svg>
